<svg version="1.1" id="Layer_1" xmlns="http://www.w3.org/2000/svg" xmlns:xlink="http://www.w3.org/1999/xlink" x="0px" y="0px"
	 width="100%" viewBox="0 0 496 496" enable-background="new 0 0 496 496" xml:space="preserve">
<path fill="#000000" opacity="1.000000" stroke="none" 
	d="
M122.288704,65.037369 
	C127.138206,67.193932 128.125809,56.009277 134.726517,62.283836 
	C137.478485,64.899841 144.324722,62.882816 149.188843,63.694363 
	C154.071838,64.509064 158.877701,66.007607 163.583267,67.602226 
	C168.304626,69.202202 173.333542,70.583710 177.396591,73.302811 
	C187.923401,80.347610 198.083633,80.706200 210.070297,76.321510 
	C225.850067,70.549316 242.728470,68.914314 259.580536,69.677635 
	C271.281403,70.207626 282.663452,72.790070 292.994812,78.660568 
	C298.003967,81.506866 302.004303,85.509628 304.494751,90.827003 
	C309.155212,100.777725 305.962891,109.158913 295.719818,113.017715 
	C284.579956,117.214340 273.121094,118.045921 261.376617,115.761284 
	C240.284836,111.658333 221.606750,101.658630 202.856232,91.897110 
	C199.190964,89.988968 196.434692,90.055412 192.714600,91.650032 
	C168.531479,102.016083 146.983414,116.274818 128.370117,134.833603 
	C115.851959,147.315094 105.446480,161.289368 100.598305,178.668900 
	C98.252098,187.079498 97.588196,195.620941 98.950798,204.332703 
	C101.399788,219.990265 114.862083,229.362793 130.048172,231.658707 
	C151.475327,234.898178 170.799042,228.074326 189.730042,219.365128 
	C202.893616,213.309219 215.911545,206.931152 229.143784,201.031723 
	C243.466965,194.645920 258.543915,191.528595 274.260132,192.593811 
	C278.855469,192.905273 283.399414,194.255600 287.911316,195.357468 
	C289.388580,195.718231 291.217804,196.204788 291.405579,198.324051 
	C290.437134,199.258118 289.419586,198.640610 288.565491,198.348557 
	C271.509216,192.516220 255.068619,195.618332 238.818954,201.683548 
	C221.581299,208.117508 205.985962,217.904587 189.480850,225.832947 
	C175.234665,232.676193 160.251190,237.119492 144.465439,238.078506 
	C129.092926,239.012390 114.679947,235.436111 101.893356,226.558716 
	C87.034081,216.242355 81.203194,198.438187 86.187164,179.042694 
	C92.046288,156.241501 105.464233,138.329010 122.785652,123.029823 
	C140.037201,107.792358 159.551498,96.089180 180.446655,86.592308 
	C181.926254,85.919823 183.671341,85.524628 184.041061,83.586761 
	C183.812042,82.415070 182.979065,81.828789 182.069565,81.410194 
	C165.182907,73.638344 148.087982,66.615280 128.889969,68.410271 
	C124.880333,68.785172 120.443192,68.477234 117.788055,72.715378 
	C117.465828,73.229721 116.228874,73.576889 115.570618,73.405869 
	C112.409203,72.584518 110.673943,73.113380 111.262039,76.926315 
	C111.469749,78.273056 110.279091,79.447334 109.076241,78.883522 
	C103.022583,76.045944 104.218948,80.216812 104.433113,83.595619 
	C103.087692,85.493973 99.604370,82.608665 98.783524,86.109970 
	C98.292694,88.203568 98.394264,90.962265 94.959450,91.467499 
	C93.614952,89.499062 94.800758,87.889404 95.698692,86.164345 
	C100.369141,77.191742 107.566460,71.074387 116.840019,67.265076 
	C118.534973,66.568832 120.227600,65.866943 122.288704,65.037369 
M248.279480,76.886292 
	C233.639893,77.742599 219.676163,81.223358 205.470139,87.148216 
	C210.940186,91.701233 216.377655,94.233910 221.603653,97.022629 
	C236.804459,105.134132 252.508026,111.952019 270.200500,111.577080 
	C279.191864,111.386536 287.638763,108.794502 294.393402,102.480270 
	C300.731659,96.555275 300.283112,88.955391 293.588409,83.595528 
	C290.273041,80.941154 286.392914,79.475235 282.353210,78.407936 
	C271.423340,75.520264 260.348297,75.496864 248.279480,76.886292 
z"/>
<path fill="#000000" opacity="1.000000" stroke="none" 
	d="
M286.821472,355.944397 
	C303.727051,314.408722 321.673004,273.738922 339.694366,233.099228 
	C346.982544,216.663773 354.654907,200.386200 360.970734,183.532104 
	C361.826019,181.249741 363.261688,179.031601 362.321899,176.362946 
	C360.789368,175.198914 359.382507,176.206558 358.118134,176.750076 
	C317.246460,194.319595 279.394379,216.598419 247.608490,248.197006 
	C242.408813,253.366058 237.771225,259.094727 235.184021,266.140808 
	C231.661392,275.734467 234.052628,282.081757 243.205429,286.729248 
	C253.429581,291.920715 264.352234,293.422241 275.698975,292.318481 
	C278.511322,292.044922 281.333679,291.838501 284.156403,291.722137 
	C285.671265,291.659668 287.467133,291.815216 287.657501,293.704193 
	C287.851654,295.630920 286.086792,295.988678 284.596832,296.279175 
	C280.662476,297.046143 276.697144,297.415070 272.678955,297.280182 
	C261.839203,296.916321 251.091660,295.980103 240.783218,292.271210 
	C224.907806,286.559357 220.554993,274.408569 228.971390,259.743927 
	C235.394653,248.552124 244.556656,239.759796 254.245239,231.636642 
	C284.074677,206.626846 317.309052,187.129837 353.152924,172.057892 
	C356.650208,170.587326 360.414337,169.533218 364.158508,168.917633 
	C370.175934,167.928299 372.963898,170.732300 372.409760,176.791061 
	C371.761047,183.884048 368.702026,190.266205 365.914337,196.636475 
	C348.691742,235.992889 331.300873,275.275665 313.958588,314.579681 
	C305.624023,333.468933 297.273590,352.351196 288.928986,371.236023 
	C288.525177,372.149811 288.104126,373.055969 287.698425,373.968964 
	C286.751648,376.099823 285.480621,378.018005 282.816162,376.870911 
	C280.318298,375.795593 280.352020,373.395813 281.091797,371.267914 
	C282.839996,366.239227 284.813660,361.288910 286.821472,355.944397 
z"/>
<path fill="#000000" opacity="1.000000" stroke="none" 
	d="
M393.273926,330.570068 
	C404.004364,336.107117 414.418152,341.660065 424.815399,347.243713 
	C426.326874,348.055481 427.825012,348.997772 426.633148,351.114502 
	C425.508972,353.110992 423.969116,353.331757 422.018951,352.259460 
	C414.892242,348.340851 407.741211,344.466400 399.714539,341.179535 
	C404.126038,350.141144 408.537537,359.102783 413.498016,369.179657 
	C402.438354,367.735107 392.968353,366.498199 383.498383,365.261292 
	C383.276337,365.578918 383.054291,365.896576 382.832245,366.214233 
	C389.285858,372.368591 395.739502,378.522980 402.193115,384.677338 
	C401.778839,385.118164 401.364594,385.558990 400.950317,385.999817 
	C390.896515,377.856750 381.842529,368.581482 372.546997,359.209015 
	C384.130554,358.825012 395.304718,361.720978 407.581757,362.589630 
	C403.754547,354.941010 400.040802,347.992096 396.799133,340.829529 
	C395.308441,337.535828 392.271759,334.728119 393.273926,330.570068 
z"/>
<path fill="#000000" opacity="1.000000" stroke="none" 
	d="
M239.423111,455.832672 
	C234.410309,450.144470 231.187302,443.490356 224.992065,437.218658 
	C224.405365,442.866882 223.989212,447.187775 223.493546,451.499512 
	C223.277466,453.379120 223.662811,455.803375 220.447678,455.453644 
	C217.523651,455.135620 217.741745,453.002625 217.856155,450.993011 
	C218.450516,440.553986 219.171997,430.121124 219.642487,419.676819 
	C219.780365,416.616180 221.074860,415.599762 223.940338,415.673645 
	C227.592850,415.767822 231.224396,415.652985 234.844543,416.504547 
	C241.310669,418.025574 244.005615,420.485779 244.353058,425.630768 
	C244.763885,431.713959 242.179993,435.322113 235.897644,437.403656 
	C235.307709,437.599152 234.681732,437.685944 233.645660,437.919403 
	C237.840286,444.045654 241.817764,449.854736 245.792191,455.659363 
	C243.376205,457.779541 241.547180,456.561798 239.423111,455.832672 
M234.669235,434.366425 
	C238.120438,432.306854 239.033966,429.107147 238.676865,425.362518 
	C238.240921,420.790955 234.883377,418.474335 229.465195,418.272827 
	C223.962219,418.068207 225.636353,421.978851 225.305313,424.802155 
	C225.092300,426.618958 225.167709,428.501434 224.717010,430.252319 
	C223.565704,434.724976 225.596649,436.010651 229.653717,435.697266 
	C231.162491,435.580750 232.642578,435.517456 234.669235,434.366425 
z"/>
<path fill="#000000" opacity="1.000000" stroke="none" 
	d="
M430.983643,149.093201 
	C431.698669,151.145279 430.504120,152.459137 429.814911,153.943756 
	C424.658569,165.051300 419.524139,176.169022 413.827881,188.483185 
	C424.076599,184.253464 433.070740,180.541504 442.064880,176.829559 
	C439.757324,180.700211 411.310303,193.023819 405.528076,193.451660 
	C411.398376,180.568756 417.063873,168.135300 422.729370,155.701859 
	C422.470581,155.401596 422.211823,155.101334 421.953064,154.801056 
	C412.959015,158.516693 403.964966,162.232315 394.970886,165.947937 
	C394.696869,165.267258 394.422821,164.586563 394.148804,163.905884 
	C406.308685,158.796143 418.073608,152.800964 430.983643,149.093201 
z"/>
<path fill="#000000" opacity="1.000000" stroke="none" 
	d="
M416.828796,241.517868 
	C416.334717,243.646362 415.738525,245.396790 415.465088,247.196289 
	C414.112518,256.097870 416.769165,262.340881 423.385468,266.064056 
	C430.164001,269.878540 441.616577,269.321716 447.178314,264.907288 
	C451.140076,261.762787 453.896790,253.193176 452.352966,248.536087 
	C452.052795,247.630615 451.467072,246.733978 450.787201,246.061676 
	C449.915192,245.199402 437.622925,244.937592 436.509644,245.526291 
	C434.959991,246.345703 435.726440,248.741058 433.938477,249.501175 
	C431.164154,242.497467 432.902679,239.537918 439.521667,239.663040 
	C439.688110,239.666199 439.858917,239.643875 440.020416,239.673386 
	C444.248230,240.445862 449.753510,237.557404 452.518890,242.167694 
	C455.799713,247.637222 455.390106,254.123566 453.506958,260.093506 
	C449.844574,271.703888 439.912933,276.431396 427.207764,273.113495 
	C415.078766,269.946045 411.789429,258.254364 412.989044,248.322174 
	C413.284424,245.876404 413.951263,243.444031 414.730072,241.099411 
	C415.231201,239.590591 416.210907,239.273026 416.828796,241.517868 
z"/>
<path fill="#000000" opacity="1.000000" stroke="none" 
	d="
M430.983582,296.698730 
	C436.719910,297.049438 441.919342,294.697418 447.400574,296.192871 
	C447.876129,299.505341 446.717499,301.213501 443.255371,301.352356 
	C440.778687,301.451721 438.279938,302.296844 435.853577,302.086731 
	C430.715698,301.641876 429.311157,304.694916 427.622437,308.758514 
	C425.326782,314.282471 426.338257,317.984344 431.051239,321.490021 
	C433.383759,323.224976 436.305756,324.920227 436.998413,328.211975 
	C436.636444,328.589478 436.274475,328.966949 435.912506,329.344421 
	C425.484406,319.811615 415.056335,310.278809 403.644348,299.846588 
	C413.500488,297.596069 422.118164,297.971802 430.983582,296.698730 
M414.676636,304.054260 
	C413.719696,304.288818 413.030609,304.824677 413.980347,305.673706 
	C416.895081,308.279266 419.479004,311.311798 423.102966,313.458008 
	C425.103027,310.332764 425.950195,307.281494 426.300476,303.792664 
	C422.448730,303.038452 418.880402,303.115601 414.676636,304.054260 
z"/>
<path fill="#000000" opacity="1.000000" stroke="none" 
	d="
M325.247192,426.780579 
	C320.334839,421.917816 316.865753,427.413818 312.851959,428.076355 
	C309.968353,428.552338 309.211426,431.012787 309.220551,433.814606 
	C309.234314,438.040283 309.058319,442.275024 307.195557,446.305969 
	C307.028412,432.096680 305.960114,417.897766 307.858185,402.208893 
	C318.979309,412.930206 329.064819,422.653137 339.317657,432.537415 
	C336.636078,435.802155 334.390594,435.771240 331.928345,433.298309 
	C329.815796,431.176666 327.645447,429.112671 325.247192,426.780579 
M309.342010,421.214966 
	C309.551453,422.792877 308.772247,424.540863 310.446259,426.303619 
	C313.374115,424.968567 316.831848,424.530396 319.734009,421.699066 
	C316.627136,418.405884 313.902130,415.202545 309.345551,412.293335 
	C309.345551,415.518829 309.345551,417.939911 309.342010,421.214966 
z"/>
<path fill="#000000" opacity="1.000000" stroke="none" 
	d="
M201.885956,414.007385 
	C189.798096,407.988678 180.617996,411.690826 176.324921,423.988983 
	C171.114700,438.914368 179.570328,449.525482 195.345901,447.886688 
	C195.948013,447.824158 196.581024,448.059113 197.351105,448.178986 
	C194.560425,451.365540 187.919418,451.338226 181.479645,448.329376 
	C172.183807,443.986084 168.055542,436.108521 169.738235,425.924316 
	C171.289948,416.532806 177.677567,409.723572 185.959167,408.632660 
	C195.141953,407.423004 204.904663,410.946106 207.400833,416.601562 
	C205.019928,416.977509 203.890579,414.917084 201.885956,414.007385 
z"/>
<path fill="#000000" opacity="1.000000" stroke="none" 
	d="
M428.107513,209.648224 
	C427.652832,207.807190 427.344299,206.343765 428.316711,204.888855 
	C430.293365,205.902695 430.119141,207.779984 430.404602,209.526978 
	C430.723602,211.479355 430.652679,214.363022 431.857208,215.150925 
	C436.726532,218.335999 441.648071,214.795685 446.523560,214.169495 
	C449.123566,213.835571 448.524292,211.021805 448.161194,208.745422 
	C447.683838,205.752762 446.387238,202.764801 447.624664,199.566498 
	C450.621552,205.433868 450.649811,211.934662 452.092499,218.550308 
	C444.511353,221.076904 436.852539,221.516739 429.468964,223.174652 
	C425.110107,224.153397 420.646362,224.663589 416.231934,225.397263 
	C414.482178,225.688080 412.709412,225.785110 412.331696,223.537247 
	C411.383667,217.895355 409.644165,212.347122 409.763947,205.651093 
	C413.267853,209.138046 412.243347,213.100143 413.179474,216.398865 
	C413.865204,218.815399 414.774963,219.999817 417.176392,219.599258 
	C421.058441,218.951736 424.912018,218.133621 429.145630,217.316513 
	C428.806335,214.568237 428.525879,212.296722 428.107513,209.648224 
z"/>
<path fill="#000000" opacity="1.000000" stroke="none" 
	d="
M267.165802,426.010376 
	C267.911530,432.614594 267.907593,432.585876 274.163940,431.728821 
	C276.381500,431.425079 278.623413,431.298676 282.011292,430.983734 
	C279.035889,434.327118 275.888824,433.824341 273.303436,434.257935 
	C270.135712,434.789246 268.851196,436.150604 269.304047,439.227875 
	C269.927490,443.464508 270.068604,447.802704 271.698853,451.863831 
	C276.476379,452.469025 280.885010,449.855591 285.589417,451.327148 
	C279.978882,454.065948 273.790741,454.221924 267.763885,455.012848 
	C266.704468,455.151855 266.062744,454.046326 265.890106,452.993652 
	C263.909088,440.912567 261.949219,428.828033 259.933105,416.433350 
	C266.653931,414.343109 272.983978,413.444641 280.400360,412.952515 
	C277.946533,416.287781 275.103668,415.471161 272.905853,415.990601 
	C265.497955,417.741302 265.340118,417.752289 267.165802,426.010376 
z"/>
<path fill="#000000" opacity="1.000000" stroke="none" 
	d="
M377.848511,392.147461 
	C379.978027,394.511383 381.871979,396.605133 383.746796,398.715912 
	C384.952332,400.073151 384.938782,401.301453 383.471466,402.547272 
	C382.077850,403.730530 380.844330,403.826538 379.596954,402.433655 
	C371.951172,393.895874 364.303284,385.360016 356.668915,376.812042 
	C355.530731,375.537720 355.247070,374.236023 356.670746,372.900757 
	C358.310730,371.362579 359.644379,371.977905 360.915863,373.387146 
	C366.478851,379.552917 372.041809,385.718719 377.848511,392.147461 
z"/>
<path fill="#000000" opacity="1.000000" stroke="none" 
	d="
M36.644146,210.104431 
	C36.051914,212.329620 34.911453,213.252411 33.023502,212.014847 
	C32.107800,211.414581 31.892031,210.244568 32.633492,209.423721 
	C33.994392,207.917175 35.430733,207.907120 36.644146,210.104431 
z"/>
</svg>